HIERARCHY
ROOT Hips
{
	OFFSET 0.000000 0.000000 0.000000
	CHANNELS 6 Xposition Yposition Zposition Zrotation Yrotation Xrotation 
	JOINT LHipJoint
	{
		OFFSET 0.000000 0.000000 0.000000
		CHANNELS 3 Zrotation Yrotation Xrotation
		JOINT LeftUpLeg
		{
			OFFSET 1.363060 -1.794630 0.839290
			CHANNELS 3 Zrotation Yrotation Xrotation
			JOINT LeftLeg
			{
				OFFSET 2.448110 -6.726130 0.000000
				CHANNELS 3 Zrotation Yrotation Xrotation
				JOINT LeftFoot
				{
					OFFSET 2.562200 -7.039590 0.000000
					CHANNELS 3 Zrotation Yrotation Xrotation
					JOINT LeftToeBase
					{
						OFFSET 0.157640 -0.433110 2.322550
						CHANNELS 3 Zrotation Yrotation Xrotation
						End Site
						{
							OFFSET 0.000000 0.000000 0.000000
						}
					}
				}
			}
		}
	}
	JOINT RHipJoint
	{
		OFFSET 0.000000 0.000000 0.000000
		CHANNELS 3 Zrotation Yrotation Xrotation
		JOINT RightUpLeg
		{
			OFFSET -1.305520 -1.794630 0.839290
			CHANNELS 3 Zrotation Yrotation Xrotation
			JOINT RightLeg
			{
				OFFSET -2.542530 -6.985550 0.000000
				CHANNELS 3 Zrotation Yrotation Xrotation
				JOINT RightFoot
				{
					OFFSET -2.568260 -7.056230 0.000000
					CHANNELS 3 Zrotation Yrotation Xrotation
					JOINT RightToeBase
					{
						OFFSET -0.164730 -0.452590 2.363150
						CHANNELS 3 Zrotation Yrotation Xrotation
						End Site
						{
							OFFSET 0.000000 0.000000 0.000000
						}
					}
				}
			}
		}
	}
	JOINT LowerBack
	{
		OFFSET 0.000000 0.000000 0.000000
		CHANNELS 3 Zrotation Yrotation Xrotation
		JOINT Spine
		{
			OFFSET 0.028270 2.035590 -0.193380
			CHANNELS 3 Zrotation Yrotation Xrotation
			JOINT Spine1
			{
				OFFSET 0.056720 2.048850 -0.042750
				CHANNELS 3 Zrotation Yrotation Xrotation
				JOINT Neck
				{
					OFFSET 0.000000 0.000000 0.000000
					CHANNELS 3 Zrotation Yrotation Xrotation
					JOINT Neck1
					{
						OFFSET -0.054170 1.746240 0.172020
						CHANNELS 3 Zrotation Yrotation Xrotation
						JOINT Head
						{
							OFFSET 0.104070 1.761360 -0.123970
							CHANNELS 3 Zrotation Yrotation Xrotation
							End Site
							{
								OFFSET 0.000000 0.000000 0.000000
							}
						}
					}
				}
				JOINT LeftShoulder
				{
					OFFSET 0.000000 0.000000 0.000000
					CHANNELS 3 Zrotation Yrotation Xrotation
					JOINT LeftArm
					{
						OFFSET 3.362410 1.200890 -0.311210
						CHANNELS 3 Zrotation Yrotation Xrotation
						JOINT LeftForeArm
						{
							OFFSET 4.983000 -0.000000 -0.000000
							CHANNELS 3 Zrotation Yrotation Xrotation
							JOINT LeftHand
							{
								OFFSET 3.483560 -0.000000 -0.000000
								CHANNELS 3 Zrotation Yrotation Xrotation
								JOINT LeftFingerBase
								{
									OFFSET 0.000000 0.000000 0.000000
									CHANNELS 3 Zrotation Yrotation Xrotation
									JOINT LeftHandIndex1
									{
										OFFSET 0.715260 -0.000000 -0.000000
										CHANNELS 3 Zrotation Yrotation Xrotation
										End Site
										{
											OFFSET 0.000000 0.000000 0.000000
										}
									}
								}
								JOINT LThumb
								{
									OFFSET 0.000000 0.000000 0.000000
									CHANNELS 3 Zrotation Yrotation Xrotation
									End Site
									{
										OFFSET 0.000000 0.000000 0.000000
									}
								}
							}
						}
					}
				}
				JOINT RightShoulder
				{
					OFFSET 0.000000 0.000000 0.000000
					CHANNELS 3 Zrotation Yrotation Xrotation
					JOINT RightArm
					{
						OFFSET -3.136600 1.374050 -0.404650
						CHANNELS 3 Zrotation Yrotation Xrotation
						JOINT RightForeArm
						{
							OFFSET -5.241900 -0.000000 -0.000000
							CHANNELS 3 Zrotation Yrotation Xrotation
							JOINT RightHand
							{
								OFFSET -3.444170 -0.000000 -0.000000
								CHANNELS 3 Zrotation Yrotation Xrotation
								JOINT RightFingerBase
								{
									OFFSET 0.000000 0.000000 0.000000
									CHANNELS 3 Zrotation Yrotation Xrotation
									JOINT RightHandIndex1
									{
										OFFSET -0.622530 -0.000000 -0.000000
										CHANNELS 3 Zrotation Yrotation Xrotation
										End Site
										{
											OFFSET 0.000000 0.000000 0.000000
										}
									}
								}
								JOINT RThumb
								{
									OFFSET 0.000000 0.000000 0.000000
									CHANNELS 3 Zrotation Yrotation Xrotation
									End Site
									{
										OFFSET 0.000000 0.000000 0.000000
									}
								}
							}
						}
					}
				}
			}
		}
	}
}
MOTION
Frames: 11
Frame Time: 0.016667
-1.802498 17.982640 24.088327 0.999939 -4.669286 9.233817 -0.539930 14.656611 -0.924825 -23.716364 -4.722748 -7.651403 -8.329264 -7.624998 -16.830775 2.251991 9.381789 27.459641 0.000000 0.000000 0.000000 6.024380 -17.304791 -1.189564 21.133774 22.156367 -15.400046 -7.507343 -13.532997 73.292996 17.932199 -7.979684 -20.373194 0.000000 0.000000 0.000000 -4.188972 1.102308 8.495781 4.493557 0.808112 -1.040861 0.183164 1.406479 -6.509691 -0.675540 0.476498 -0.436736 3.125016 0.214669 0.097195 0.000000 0.000000 0.000000 -1.137008 13.091251 10.350719 -70.229199 -6.343290 7.329926 -169.731779 -89.636677 -179.958633 5.905988 -12.042410 0.013963 5.985598 -12.011572 0.000000 0.000000 0.000000 0.000000 0.000000 0.000000 0.000000 2.542030 -14.068602 8.003125 57.364300 4.245185 17.677364 20.982965 65.665737 0.098236 -0.680116 5.093329 0.048859 -0.684677 5.094007 0.000000 0.000000 0.000000 0.000000 0.000000 0.000000 0.000000 
-1.774825 18.039645 24.319135 1.263748 -4.622585 9.150244 -0.855480 14.586939 -0.977791 -23.933052 -4.701457 -7.475262 -7.838102 -6.984934 -15.023253 1.816226 8.234035 24.616961 0.000000 0.000000 0.000000 5.602848 -17.084863 -0.368136 20.111073 21.598252 -15.355197 -6.710940 -13.872815 72.034961 17.538505 -8.140162 -18.927604 0.000000 0.000000 0.000000 -3.305091 1.192071 7.711387 3.350701 0.683969 0.396017 -0.270694 1.347348 -6.767358 -0.439073 0.467141 -0.313816 3.216162 0.224149 0.000813 0.000000 0.000000 0.000000 -1.071672 12.992376 10.094032 -69.751086 -6.403231 8.590927 9.059283 -89.681762 0.054731 5.923102 -12.464088 0.020079 6.007942 -12.432014 0.000000 0.000000 0.000000 0.000000 0.000000 0.000000 0.000000 1.744720 -14.020140 7.865933 59.070628 4.395300 17.835499 21.093444 66.844007 0.138161 -0.593195 6.575401 0.068587 -0.600485 6.576507 0.000000 0.000000 0.000000 0.000000 0.000000 0.000000 0.000000 
-1.760788 18.086384 24.530130 1.471915 -4.365644 9.091376 -1.086797 14.374234 -1.132088 -24.089950 -4.675801 -7.234768 -7.378510 -6.428824 -13.334891 1.475480 7.156388 22.099088 0.000000 0.000000 0.000000 5.355579 -16.607869 0.211423 19.070841 20.845008 -15.130516 -5.728670 -14.414363 70.719816 17.328871 -8.363046 -17.838888 0.000000 0.000000 0.000000 -2.685835 1.214440 7.267517 2.523358 0.567045 1.260557 -0.660156 1.268181 -6.810990 -0.168916 0.452295 -0.247645 3.298487 0.230741 -0.053410 0.000000 0.000000 0.000000 -0.855066 12.776621 9.911615 -69.412103 -6.382814 9.934045 7.605132 -88.892168 0.078204 5.856391 -12.878965 0.031351 5.944974 -12.846637 0.000000 0.000000 0.000000 0.000000 0.000000 0.000000 0.000000 0.822164 -13.893104 7.737015 60.852625 4.467409 18.168648 20.900663 68.500840 0.190470 -0.530139 8.131431 0.094402 -0.540402 8.133085 0.000000 0.000000 0.000000 0.000000 0.000000 0.000000 0.000000 
-1.753433 18.127089 24.727189 1.810152 -4.501501 8.680960 -0.713772 13.668580 -2.075424 -24.991231 -3.661380 -5.472698 -6.597629 -5.962201 -12.446095 1.260321 6.630532 20.693540 0.000000 0.000000 0.000000 5.045625 -15.947220 0.814149 18.070415 20.018258 -14.569223 -4.988338 -14.827326 69.456743 16.924803 -8.440768 -16.660295 0.000000 0.000000 0.000000 -2.484945 1.328576 7.350707 1.892843 0.570279 1.814547 -0.986729 1.293076 -6.744068 0.046813 0.445143 -0.209036 3.405145 0.236269 -0.060921 0.000000 0.000000 0.000000 -0.577713 12.620995 9.780506 -69.167218 -6.424824 11.045699 6.275085 -88.205511 0.097802 5.768249 -13.229113 0.040766 5.859797 -13.196902 0.000000 0.000000 0.000000 0.000000 0.000000 0.000000 0.000000 -0.018038 -13.723974 7.593946 62.431313 4.558851 18.350832 20.856989 69.738822 0.243918 -0.471357 9.474216 0.120748 -0.484158 9.476473 0.000000 0.000000 0.000000 0.000000 0.000000 0.000000 0.000000 
-1.752424 18.161074 24.909814 2.020023 -4.388285 8.485119 -0.578448 13.091084 -2.704988 -25.424536 -3.095499 -4.424053 -6.046249 -5.535088 -11.408743 1.079949 6.029560 19.189985 0.000000 0.000000 0.000000 4.976502 -15.180245 1.188885 17.072106 19.120459 -14.037237 -4.133387 -15.357113 68.190756 16.693323 -8.611352 -15.705252 0.000000 0.000000 0.000000 -2.379295 1.332788 7.493426 1.544662 0.517116 1.966837 -1.247952 1.255184 -6.571303 0.210844 0.440899 -0.184352 3.511624 0.238208 -0.012270 0.000000 0.000000 0.000000 -0.253792 12.444417 9.670515 -69.030176 -6.464826 11.931911 5.149287 -87.635216 0.114698 5.681037 -13.502616 0.048917 5.774702 -13.470709 0.000000 0.000000 0.000000 0.000000 0.000000 0.000000 0.000000 -0.795196 -13.591227 7.481861 63.790219 4.663188 18.421697 20.926978 70.578744 0.292346 -0.415849 10.581542 0.144586 -0.430656 10.584387 0.000000 0.000000 0.000000 0.000000 0.000000 0.000000 0.000000 
-1.749509 18.194303 25.086435 2.193077 -4.323895 8.362840 -0.574017 12.527250 -3.219017 -25.666702 -2.612291 -3.560642 -5.535919 -5.160213 -10.537462 0.936062 5.541673 17.904244 0.000000 0.000000 0.000000 5.010661 -14.441560 1.548401 16.057628 18.290446 -13.587932 -3.335171 -15.808328 66.974202 16.456381 -8.781026 -14.717442 0.000000 0.000000 0.000000 -2.279154 1.318378 7.598416 1.236122 0.453858 2.089118 -1.546605 1.208683 -6.353365 0.357559 0.440222 -0.196929 3.663615 0.240269 0.075744 0.000000 0.000000 0.000000 0.082906 12.373511 9.514598 -68.915660 -6.605015 12.528163 4.417027 -87.268735 0.125054 5.631346 -13.687111 0.053869 5.726639 -13.655310 0.000000 0.000000 0.000000 0.000000 0.000000 0.000000 0.000000 -1.602636 -13.511007 7.436435 65.151702 4.945827 17.981526 21.814116 70.132144 0.333882 -0.279321 11.504665 0.165045 -0.295080 11.508193 0.000000 0.000000 0.000000 0.000000 0.000000 0.000000 0.000000 
-1.730409 18.237226 25.272591 2.320037 -4.418240 8.397822 -1.071173 12.148585 -3.233302 -25.403997 -2.477801 -3.352783 -5.047526 -4.854064 -9.823405 0.797916 5.104855 16.687351 0.000000 0.000000 0.000000 5.111264 -13.978978 2.099644 14.938039 17.716617 -13.514152 -2.644743 -16.021586 65.816835 16.086152 -8.896490 -13.454612 0.000000 0.000000 0.000000 -1.810564 1.325877 7.139967 0.621548 0.381710 2.823673 -1.921524 1.154097 -6.329202 0.496296 0.443527 -0.208883 3.840089 0.248192 0.095664 0.000000 0.000000 0.000000 0.229186 12.459077 9.291336 -68.676213 -6.831113 12.840612 4.191265 -87.121497 0.128703 5.644918 -13.780810 0.055523 5.741565 -13.748650 0.000000 0.000000 0.000000 0.000000 0.000000 0.000000 0.000000 -2.283554 -13.557923 7.440228 66.392018 5.426612 16.938766 23.538528 68.182886 0.364981 -0.054579 12.219663 0.180428 -0.069858 12.223903 0.000000 0.000000 0.000000 0.000000 0.000000 0.000000 0.000000 
-1.710692 18.278786 25.452941 2.453690 -4.515223 8.395406 -1.598069 11.857671 -3.159335 -25.095568 -2.413511 -3.275341 -4.657834 -4.505406 -8.989913 0.674098 4.685592 15.498120 0.000000 0.000000 0.000000 5.242637 -13.552315 2.679798 13.795810 17.139225 -13.441063 -1.980488 -16.205456 64.654231 15.650292 -8.942496 -12.206393 0.000000 0.000000 0.000000 -1.341212 1.332626 6.518961 0.011645 0.317504 3.780200 -2.119386 1.093225 -6.406811 0.629022 0.442649 -0.295321 3.899616 0.261535 -0.043827 0.000000 0.000000 0.000000 0.295050 12.397556 9.141730 -68.425620 -6.860352 13.511889 3.260757 -86.620901 0.139371 5.589311 -14.017177 0.060533 5.688455 -13.985034 0.000000 0.000000 0.000000 0.000000 0.000000 0.000000 0.000000 -2.700614 -13.566793 7.401347 67.191456 5.735177 16.332325 24.386831 67.205550 0.389758 0.059493 12.747710 0.192671 0.044449 12.752405 0.000000 0.000000 0.000000 0.000000 0.000000 0.000000 0.000000 
-1.693732 18.316666 25.624463 2.601785 -4.591864 8.324021 -2.076925 11.629293 -3.062296 -24.813891 -2.368953 -3.229430 -4.361987 -4.114297 -8.032955 0.565402 4.281020 14.346578 0.000000 0.000000 0.000000 5.400571 -13.123180 3.262656 12.653040 16.525528 -13.308353 -1.333388 -16.394382 63.489136 15.170581 -8.923043 -11.027593 0.000000 0.000000 0.000000 -0.932958 1.339464 5.795509 -0.566795 0.264348 4.930037 -2.090275 1.025961 -6.566805 0.756556 0.437866 -0.482465 3.833082 0.280313 -0.348270 0.000000 0.000000 0.000000 0.323158 12.157630 9.064185 -68.203129 -6.704530 14.562694 1.478523 -85.707997 0.158079 5.437320 -14.401389 0.069415 5.539925 -14.369945 0.000000 0.000000 0.000000 0.000000 0.000000 0.000000 0.000000 -2.848397 -13.511643 7.320559 67.542236 5.830212 16.275540 24.274419 67.437028 0.406598 0.045823 13.068663 0.200946 0.030274 13.073532 0.000000 0.000000 0.000000 0.000000 0.000000 0.000000 0.000000 
-1.679628 18.351136 25.788093 2.773500 -4.622317 8.129496 -2.510355 11.469060 -2.914609 -24.557469 -2.343843 -3.195407 -4.152625 -3.679394 -6.923788 0.466831 3.875017 13.221873 0.000000 0.000000 0.000000 5.562942 -12.706472 3.894245 11.506236 15.879121 -13.087905 -0.648145 -16.597633 62.295921 14.695783 -8.865859 -9.957591 0.000000 0.000000 0.000000 -0.543616 1.326908 4.838106 -1.146412 0.205534 6.544289 -1.991828 0.948966 -6.789187 1.084659 0.410420 -0.947581 3.613755 0.311514 -0.953307 0.000000 0.000000 0.000000 0.389178 11.742688 9.016158 -68.002512 -6.456855 15.853359 -1.077090 -84.389339 0.187368 5.162329 -14.851373 0.083613 5.267426 -14.821897 0.000000 0.000000 0.000000 0.000000 0.000000 0.000000 0.000000 -3.170736 -13.325831 7.214382 68.065058 5.971188 16.296027 24.048427 68.063222 0.430851 0.010693 13.518078 0.212839 -0.005802 13.523182 0.000000 0.000000 0.000000 0.000000 0.000000 0.000000 0.000000 
-1.669002 18.381861 25.943526 2.974047 -4.580385 7.758189 -2.890050 11.381047 -2.689344 -24.328106 -2.339438 -3.150987 -4.023258 -3.202613 -5.642764 0.376180 3.456773 12.121438 0.000000 0.000000 0.000000 5.723537 -12.329581 4.619209 10.354073 15.198434 -12.768739 0.080262 -16.815945 61.072787 14.232910 -8.771399 -9.009642 0.000000 0.000000 0.000000 -0.165115 1.342155 3.517188 -1.814632 0.180499 9.020459 -1.546707 0.873623 -7.340934 1.573488 0.343059 -1.742564 3.086672 0.339255 -1.870153 0.000000 0.000000 0.000000 0.385907 11.083177 8.998782 -67.903124 -6.109223 17.393250 -4.723406 -82.523790 0.230462 4.697595 -15.342716 0.104854 4.802803 -15.317226 0.000000 0.000000 0.000000 0.000000 0.000000 0.000000 0.000000 -3.240386 -12.977700 7.024710 68.143911 5.767823 17.073027 22.145962 70.655379 0.446131 -0.254279 13.784448 0.220128 -0.274040 13.789250 0.000000 0.000000 0.000000 0.000000 0.000000 0.000000 0.000000 
